<svg width="50" height="50" viewBox="0 0 50 50" fill="none" xmlns="http://www.w3.org/2000/svg">
<circle cx="25" cy="25" r="25" fill="#EDEDED"/>
<g clip-path="url(#clip0_151_1039)">
<path d="M32.6562 19.9688C32.1094 19.6562 31.4062 19.6562 30.7812 19.9688L26.4062 22.5469L23.4375 24.1875L19.1406 26.7656C18.5937 27.0781 17.8906 27.0781 17.2656 26.7656L13.9062 24.7344C13.3594 24.4219 12.9687 23.7969 12.9687 23.0937V19.1875C12.9687 18.5625 13.2812 17.9375 13.9062 17.5469L17.2656 15.5937C17.8125 15.2812 18.5156 15.2812 19.1406 15.5937L22.5 17.625C23.0469 17.9375 23.4375 18.5625 23.4375 19.2656V21.8438L26.4062 20.125V17.4687C26.4062 16.8437 26.0937 16.2187 25.4687 15.8281L19.2187 12.1562C18.6719 11.8438 17.9687 11.8438 17.3437 12.1562L10.9375 15.9062C10.3125 16.2187 10 16.8437 10 17.4687V24.8125C10 25.4375 10.3125 26.0625 10.9375 26.4531L17.2656 30.125C17.8125 30.4375 18.5156 30.4375 19.1406 30.125L23.4375 27.625L26.4062 25.9062L30.7031 23.4062C31.25 23.0938 31.9531 23.0938 32.5781 23.4062L35.9375 25.3594C36.4844 25.6719 36.875 26.2969 36.875 27V30.9062C36.875 31.5312 36.5625 32.1562 35.9375 32.5469L32.6562 34.5C32.1094 34.8125 31.4062 34.8125 30.7812 34.5L27.4219 32.5469C26.875 32.2344 26.4844 31.6094 26.4844 30.9062V28.4062L23.5156 30.125V32.7031C23.5156 33.3281 23.8281 33.9531 24.4531 34.3437L30.7812 38.0156C31.3281 38.3281 32.0312 38.3281 32.6562 38.0156L38.9844 34.3437C39.5312 34.0312 39.9219 33.4062 39.9219 32.7031V25.2812C39.9219 24.6562 39.6094 24.0312 38.9844 23.6406L32.6562 19.9688Z" fill="#8247E5"/>
</g>
<defs>
<clipPath id="clip0_151_1039">
<rect width="30" height="26.1719" fill="white" transform="translate(10 12)"/>
</clipPath>
</defs>
</svg>
