<svg width="50" height="50" viewBox="0 0 50 50" fill="none" xmlns="http://www.w3.org/2000/svg">
<circle cx="25" cy="25" r="25" fill="#EDEDED"/>
<g clip-path="url(#clip0_151_1009)">
<path d="M16.0609 29.9548C16.2118 29.8039 16.4192 29.7159 16.6392 29.7159H36.5914C36.956 29.7159 37.1383 30.1559 36.8806 30.4136L32.9392 34.3551C32.7883 34.5059 32.5809 34.5939 32.3609 34.5939H12.4086C12.044 34.5939 11.8618 34.1539 12.1195 33.8962L16.0609 29.9548Z" fill="url(#paint0_linear_151_1009)"/>
<path d="M16.0609 15.2389C16.218 15.088 16.4255 15 16.6392 15H36.5914C36.956 15 37.1383 15.44 36.8806 15.6978L32.9392 19.6392C32.7883 19.79 32.5809 19.878 32.3609 19.878H12.4086C12.044 19.878 11.8618 19.438 12.1195 19.1803L16.0609 15.2389Z" fill="url(#paint1_linear_151_1009)"/>
<path d="M32.9392 22.5497C32.7883 22.3988 32.5809 22.3108 32.3609 22.3108H12.4086C12.044 22.3108 11.8618 22.7508 12.1195 23.0086L16.0609 26.95C16.2118 27.1008 16.4192 27.1888 16.6392 27.1888H36.5914C36.956 27.1888 37.1383 26.7488 36.8806 26.4911L32.9392 22.5497Z" fill="url(#paint2_linear_151_1009)"/>
</g>
<defs>
<linearGradient id="paint0_linear_151_1009" x1="34.6854" y1="12.6455" x2="20.8769" y2="39.0944" gradientUnits="userSpaceOnUse">
<stop stop-color="#00FFA3"/>
<stop offset="1" stop-color="#DC1FFF"/>
</linearGradient>
<linearGradient id="paint1_linear_151_1009" x1="28.6476" y1="9.49325" x2="14.8391" y2="35.9421" gradientUnits="userSpaceOnUse">
<stop stop-color="#00FFA3"/>
<stop offset="1" stop-color="#DC1FFF"/>
</linearGradient>
<linearGradient id="paint2_linear_151_1009" x1="31.6473" y1="11.0593" x2="17.8388" y2="37.5082" gradientUnits="userSpaceOnUse">
<stop stop-color="#00FFA3"/>
<stop offset="1" stop-color="#DC1FFF"/>
</linearGradient>
<clipPath id="clip0_151_1009">
<rect width="25" height="19.5939" fill="white" transform="translate(12 15)"/>
</clipPath>
</defs>
</svg>
